<?xml version="1.0" encoding="UTF-8" standalone="no"?>
<!-- Created with Inkscape (http://www.inkscape.org/) -->

<svg
   xmlns:dc="http://purl.org/dc/elements/1.1/"
   xmlns:cc="http://creativecommons.org/ns#"
   xmlns:rdf="http://www.w3.org/1999/02/22-rdf-syntax-ns#"
   xmlns:svg="http://www.w3.org/2000/svg"
   xmlns="http://www.w3.org/2000/svg"
   xmlns:sodipodi="http://sodipodi.sourceforge.net/DTD/sodipodi-0.dtd"
   xmlns:inkscape="http://www.inkscape.org/namespaces/inkscape"
   width="94.335106"
   height="45.006229"
   id="svg2"
   version="1.1"
   inkscape:version="0.48.4 r9939"
   sodipodi:docname="ufo.png"
   inkscape:export-filename="/home/jasper/icalt/images/ufo.png"
   inkscape:export-xdpi="90"
   inkscape:export-ydpi="90">
  <defs
     id="defs4" />
  <sodipodi:namedview
     id="base"
     pagecolor="#ffffff"
     bordercolor="#666666"
     borderopacity="1.0"
     inkscape:pageopacity="0"
     inkscape:pageshadow="2"
     inkscape:zoom="1"
     inkscape:cx="184.95708"
     inkscape:cy="-47.745577"
     inkscape:document-units="px"
     inkscape:current-layer="layer1"
     showgrid="false"
     fit-margin-top="0"
     fit-margin-left="0"
     fit-margin-right="0"
     fit-margin-bottom="0"
     inkscape:window-width="1680"
     inkscape:window-height="998"
     inkscape:window-x="0"
     inkscape:window-y="27"
     inkscape:window-maximized="1" />
  <metadata
     id="metadata7">
    <rdf:RDF>
      <cc:Work
         rdf:about="">
        <dc:format>image/svg+xml</dc:format>
        <dc:type
           rdf:resource="http://purl.org/dc/dcmitype/StillImage" />
        <dc:title></dc:title>
      </cc:Work>
    </rdf:RDF>
  </metadata>
  <g
     inkscape:label="Layer 1"
     inkscape:groupmode="layer"
     id="layer1"
     transform="translate(-154.64285,-521.28453)">
    <path
       sodipodi:type="arc"
       style="fill:none;stroke:#000000;stroke-width:5;stroke-miterlimit:4;stroke-dasharray:none"
       id="path2985"
       sodipodi:cx="287.14285"
       sodipodi:cy="533.79077"
       sodipodi:rx="130"
       sodipodi:ry="30"
       d="m 417.14285,533.79077 c 0,16.56854 -58.20298,30 -130,30 -71.79701,0 -130,-13.43146 -130,-30 0,-16.56854 58.20299,-30 130,-30 71.79702,0 130,13.43146 130,30 z"
       transform="matrix(0.35598154,0,0,0.35598154,99.592851,364.7017)" />
    <path
       style="fill:none;stroke:#000000;stroke-width:1.79539955;stroke-miterlimit:4"
       d="m 183.25625,545.18615 c -0.25427,-11.24801 6.0335,-23.00392 18.80843,-23.00392 12.77493,0 19.31696,10.38528 19.31696,22.74964"
       id="path3755"
       inkscape:connector-curvature="0"
       sodipodi:nodetypes="csc" />
    <path
       sodipodi:type="arc"
       style="fill:none;stroke:#000000;stroke-width:5;stroke-miterlimit:4;stroke-dasharray:none"
       id="path3758"
       sodipodi:cx="212.85715"
       sodipodi:cy="534.50507"
       sodipodi:rx="4.2857141"
       sodipodi:ry="4.2857141"
       d="m 217.14286,534.50507 c 0,2.36693 -1.91878,4.28571 -4.28571,4.28571 -2.36694,0 -4.28572,-1.91878 -4.28572,-4.28571 0,-2.36694 1.91878,-4.28572 4.28572,-4.28572 2.36693,0 4.28571,1.91878 4.28571,4.28572 z"
       transform="matrix(0.35598154,0,0,0.35598154,98.168925,365.2611)" />
    <path
       transform="matrix(0.35598154,0,0,0.35598154,111.28939,368.82091)"
       sodipodi:type="arc"
       style="fill:none;stroke:#000000;stroke-width:5;stroke-miterlimit:4;stroke-dasharray:none"
       id="path3758-7"
       sodipodi:cx="212.85715"
       sodipodi:cy="534.50507"
       sodipodi:rx="4.2857141"
       sodipodi:ry="4.2857141"
       d="m 217.14286,534.50507 c 0,2.36693 -1.91878,4.28571 -4.28571,4.28571 -2.36694,0 -4.28572,-1.91878 -4.28572,-4.28571 0,-2.36694 1.91878,-4.28572 4.28572,-4.28572 2.36693,0 4.28571,1.91878 4.28571,4.28572 z" />
    <path
       transform="matrix(0.35598154,0,0,0.35598154,126.29146,370.9568)"
       sodipodi:type="arc"
       style="fill:none;stroke:#000000;stroke-width:5;stroke-miterlimit:4;stroke-dasharray:none"
       id="path3758-4"
       sodipodi:cx="212.85715"
       sodipodi:cy="534.50507"
       sodipodi:rx="4.2857141"
       sodipodi:ry="4.2857141"
       d="m 217.14286,534.50507 c 0,2.36693 -1.91878,4.28571 -4.28571,4.28571 -2.36694,0 -4.28572,-1.91878 -4.28572,-4.28571 0,-2.36694 1.91878,-4.28572 4.28572,-4.28572 2.36693,0 4.28571,1.91878 4.28571,4.28572 z" />
    <path
       transform="matrix(0.35598154,0,0,0.35598154,141.29354,368.82091)"
       sodipodi:type="arc"
       style="fill:none;stroke:#000000;stroke-width:5;stroke-miterlimit:4;stroke-dasharray:none"
       id="path3758-8"
       sodipodi:cx="212.85715"
       sodipodi:cy="534.50507"
       sodipodi:rx="4.2857141"
       sodipodi:ry="4.2857141"
       d="m 217.14286,534.50507 c 0,2.36693 -1.91878,4.28571 -4.28571,4.28571 -2.36694,0 -4.28572,-1.91878 -4.28572,-4.28571 0,-2.36694 1.91878,-4.28572 4.28572,-4.28572 2.36693,0 4.28571,1.91878 4.28571,4.28572 z" />
    <path
       transform="matrix(0.35598154,0,0,0.35598154,153.49863,365.2611)"
       sodipodi:type="arc"
       style="fill:none;stroke:#000000;stroke-width:5;stroke-miterlimit:4;stroke-dasharray:none"
       id="path3758-3"
       sodipodi:cx="212.85715"
       sodipodi:cy="534.50507"
       sodipodi:rx="4.2857141"
       sodipodi:ry="4.2857141"
       d="m 217.14286,534.50507 c 0,2.36693 -1.91878,4.28571 -4.28571,4.28571 -2.36694,0 -4.28572,-1.91878 -4.28572,-4.28571 0,-2.36694 1.91878,-4.28572 4.28572,-4.28572 2.36693,0 4.28571,1.91878 4.28571,4.28572 z" />
  </g>
</svg>
